<svg width="130" height="149" viewBox="0 0 130 149" fill="none" xmlns="http://www.w3.org/2000/svg">
<g clip-path="url(#clip0_444_19928)">
<rect x="9" y="21" width="112" height="107" rx="16" fill="#788199" fill-opacity="0.21"/>
<g opacity="0.2" filter="url(#filter0_f_444_19928)">
<circle cx="65" cy="74" r="21" fill="#7687B5"/>
</g>
<path d="M73.4117 85.66C73.8533 85.8934 74.4242 85.8681 74.8179 85.5194L74.832 85.5334C76.3378 84.1982 77.8595 82.8809 79.3967 81.5819C79.8833 81.1797 79.7989 80.5356 79.4136 79.9984L79.062 79.5203C78.0917 78.2125 77.1692 76.9722 77.1692 74.4831V65.2019L77.172 64.2597C77.1945 60.7019 77.2114 57.4506 74.5479 54.9644C72.2614 52.7706 68.4814 52 65.5845 52C59.9229 52 53.6033 54.1094 52.2701 61.1125C52.1379 61.855 52.6723 62.2488 53.1589 62.3584L58.9358 62.9772C59.4701 62.9519 59.8639 62.4259 59.9651 61.8888C60.4601 59.4784 62.4851 58.3141 64.7548 58.3141C65.9783 58.3141 67.3676 58.7641 68.0961 59.8609C68.8386 60.9578 68.8273 62.4203 68.8189 63.7309V64.9459C68.2564 65.0078 67.6742 65.0688 67.0723 65.1288C63.942 65.4494 60.3308 65.8206 57.6223 67.0131C53.8929 68.6219 51.2689 71.9125 51.2689 76.7444C51.2689 82.9319 55.1698 86.02 60.1789 86.02C64.4145 86.02 66.7264 85.0244 69.9917 81.6887L70.4614 82.3806C71.232 83.5197 71.7439 84.2791 73.4061 85.66H73.4117ZM59.9595 75.7122C59.9595 70.6384 64.5073 69.7188 68.8104 69.7188V71.3219C68.8133 73.5044 68.8161 75.355 67.6967 77.3209C66.7517 78.9944 65.2498 80.0237 63.5764 80.0237C61.2926 80.0237 59.9595 78.2828 59.9595 75.7122ZM44.2236 86.2394C51.6176 90.7478 63.0617 97.7256 81.3008 89.0434C82.0883 88.7172 82.6367 89.2628 81.8604 90.2556C81.0758 91.2625 74.8151 97 64.2908 97C53.7776 97 45.7226 89.8169 43.2645 86.8356C42.5895 86.0622 43.3658 85.7106 43.8242 85.9947L44.2236 86.2394Z" fill="black"/>
<path d="M73.4117 85.66C73.8533 85.8934 74.4242 85.8681 74.8179 85.5194L74.832 85.5334C76.3378 84.1982 77.8595 82.8809 79.3967 81.5819C79.8833 81.1797 79.7989 80.5356 79.4136 79.9984L79.062 79.5203C78.0917 78.2125 77.1692 76.9722 77.1692 74.4831V65.2019L77.172 64.2597C77.1945 60.7019 77.2114 57.4506 74.5479 54.9644C72.2614 52.7706 68.4814 52 65.5845 52C59.9229 52 53.6033 54.1094 52.2701 61.1125C52.1379 61.855 52.6723 62.2488 53.1589 62.3584L58.9358 62.9772C59.4701 62.9519 59.8639 62.4259 59.9651 61.8888C60.4601 59.4784 62.4851 58.3141 64.7548 58.3141C65.9783 58.3141 67.3676 58.7641 68.0961 59.8609C68.8386 60.9578 68.8273 62.4203 68.8189 63.7309V64.9459C68.2564 65.0078 67.6742 65.0688 67.0723 65.1288C63.942 65.4494 60.3308 65.8206 57.6223 67.0131C53.8929 68.6219 51.2689 71.9125 51.2689 76.7444C51.2689 82.9319 55.1698 86.02 60.1789 86.02C64.4145 86.02 66.7264 85.0244 69.9917 81.6887L70.4614 82.3806C71.232 83.5197 71.7439 84.2791 73.4061 85.66H73.4117ZM59.9595 75.7122C59.9595 70.6384 64.5073 69.7188 68.8104 69.7188V71.3219C68.8133 73.5044 68.8161 75.355 67.6967 77.3209C66.7517 78.9944 65.2498 80.0237 63.5764 80.0237C61.2926 80.0237 59.9595 78.2828 59.9595 75.7122ZM44.2236 86.2394C51.6176 90.7478 63.0617 97.7256 81.3008 89.0434C82.0883 88.7172 82.6367 89.2628 81.8604 90.2556C81.0758 91.2625 74.8151 97 64.2908 97C53.7776 97 45.7226 89.8169 43.2645 86.8356C42.5895 86.0622 43.3658 85.7106 43.8242 85.9947L44.2236 86.2394Z" fill="url(#paint0_radial_444_19928)"/>
<path d="M81.8915 85.5897C83.4861 85.3928 86.0202 85.5137 86.518 86.1634C86.8977 86.6584 86.5068 88.8803 85.8627 90.475C85.2158 92.0584 84.254 93.1778 83.7196 93.6109C83.1852 94.044 82.783 93.8753 83.0727 93.2256C83.368 92.5787 84.9965 88.5484 84.3524 87.7047C83.7533 86.9228 81.0421 87.2069 79.7821 87.339L79.529 87.3644C79.2627 87.3887 79.0443 87.4112 78.8736 87.4319C78.3308 87.4909 78.1846 87.5078 78.103 87.3419C77.8949 86.754 80.294 85.7781 81.8915 85.5897Z" fill="black"/>
<path d="M81.8915 85.5897C83.4861 85.3928 86.0202 85.5137 86.518 86.1634C86.8977 86.6584 86.5068 88.8803 85.8627 90.475C85.2158 92.0584 84.254 93.1778 83.7196 93.6109C83.1852 94.044 82.783 93.8753 83.0727 93.2256C83.368 92.5787 84.9965 88.5484 84.3524 87.7047C83.7533 86.9228 81.0421 87.2069 79.7821 87.339L79.529 87.3644C79.2627 87.3887 79.0443 87.4112 78.8736 87.4319C78.3308 87.4909 78.1846 87.5078 78.103 87.3419C77.8949 86.754 80.294 85.7781 81.8915 85.5897Z" fill="url(#paint1_radial_444_19928)"/>
</g>
<rect x="9.5" y="21.5" width="111" height="106" rx="15.5" stroke="black"/>
<rect x="9.5" y="21.5" width="111" height="106" rx="15.5" stroke="url(#paint2_linear_444_19928)"/>
<defs>
<filter id="filter0_f_444_19928" x="1.9" y="10.9" width="126.2" height="126.2" filterUnits="userSpaceOnUse" color-interpolation-filters="sRGB">
<feFlood flood-opacity="0" result="BackgroundImageFix"/>
<feBlend mode="normal" in="SourceGraphic" in2="BackgroundImageFix" result="shape"/>
<feGaussianBlur stdDeviation="21.05" result="effect1_foregroundBlur_444_19928"/>
</filter>
<radialGradient id="paint0_radial_444_19928" cx="0" cy="0" r="1" gradientUnits="userSpaceOnUse" gradientTransform="translate(62.6177 74.5) rotate(89.7678) scale(24.5166 21.3759)">
<stop stop-color="#C7D7FF"/>
<stop offset="1" stop-color="#788199"/>
</radialGradient>
<radialGradient id="paint1_radial_444_19928" cx="0" cy="0" r="1" gradientUnits="userSpaceOnUse" gradientTransform="translate(82.3788 89.6772) rotate(89.7264) scale(4.54757 4.67276)">
<stop stop-color="#C7D7FF"/>
<stop offset="1" stop-color="#788199"/>
</radialGradient>
<linearGradient id="paint2_linear_444_19928" x1="121" y1="74.5" x2="9" y2="74.5" gradientUnits="userSpaceOnUse">
<stop stop-color="#7687B5"/>
<stop offset="1" stop-color="#333B4F"/>
</linearGradient>
<clipPath id="clip0_444_19928">
<rect x="9" y="21" width="112" height="107" rx="16" fill="white"/>
</clipPath>
</defs>
</svg>
