<svg width="131" height="149" viewBox="0 0 131 149" fill="none" xmlns="http://www.w3.org/2000/svg">
<g clip-path="url(#clip0_444_19873)">
<rect x="9.83203" y="21" width="112" height="107" rx="16" fill="#788199" fill-opacity="0.21"/>
<g opacity="0.2" filter="url(#filter0_f_444_19873)">
<circle cx="65.832" cy="74" r="21" fill="#7687B5"/>
</g>
<path d="M48.5 92.9938C46.5109 92.9938 44.6032 92.2036 43.1967 90.7971C41.7902 89.3905 41 87.4829 41 85.4938C41 83.5046 41.7902 81.597 43.1967 80.1905C44.6032 78.7839 46.5109 77.9938 48.5 77.9938C50.4891 77.9938 52.3968 78.7839 53.8033 80.1905C55.2098 81.597 56 83.5046 56 85.4938C56 87.4829 55.2098 89.3905 53.8033 90.7971C52.3968 92.2036 50.4891 92.9938 48.5 92.9938ZM84.995 81.7419L69.995 55.76C69.0004 54.0369 67.3621 52.7795 65.4405 52.2644C63.5188 51.7492 61.4712 52.0186 59.7481 53.0131C58.025 54.0077 56.7676 55.646 56.2525 57.5677C55.7374 59.4894 56.0067 61.5369 57.0013 63.26L72.0031 89.2419C73.0089 90.9427 74.645 92.1781 76.5562 92.6796C78.4675 93.1812 80.4994 92.9085 82.2107 91.9207C83.922 90.9329 85.1745 89.3099 85.6962 87.404C86.2179 85.4982 85.9647 83.4635 84.995 81.7419ZM55.0887 59.0825L43.9325 78.4025C45.2942 77.5246 46.8798 77.0572 48.5 77.0563C53.3 77.0413 57.1719 81.1025 56.9263 85.8969L62.9581 75.4475L56.1894 63.7288C55.3787 62.3199 54.9963 60.7053 55.0887 59.0825Z" fill="black"/>
<path d="M48.5 92.9938C46.5109 92.9938 44.6032 92.2036 43.1967 90.7971C41.7902 89.3905 41 87.4829 41 85.4938C41 83.5046 41.7902 81.597 43.1967 80.1905C44.6032 78.7839 46.5109 77.9938 48.5 77.9938C50.4891 77.9938 52.3968 78.7839 53.8033 80.1905C55.2098 81.597 56 83.5046 56 85.4938C56 87.4829 55.2098 89.3905 53.8033 90.7971C52.3968 92.2036 50.4891 92.9938 48.5 92.9938ZM84.995 81.7419L69.995 55.76C69.0004 54.0369 67.3621 52.7795 65.4405 52.2644C63.5188 51.7492 61.4712 52.0186 59.7481 53.0131C58.025 54.0077 56.7676 55.646 56.2525 57.5677C55.7374 59.4894 56.0067 61.5369 57.0013 63.26L72.0031 89.2419C73.0089 90.9427 74.645 92.1781 76.5562 92.6796C78.4675 93.1812 80.4994 92.9085 82.2107 91.9207C83.922 90.9329 85.1745 89.3099 85.6962 87.404C86.2179 85.4982 85.9647 83.4635 84.995 81.7419ZM55.0887 59.0825L43.9325 78.4025C45.2942 77.5246 46.8798 77.0572 48.5 77.0563C53.3 77.0413 57.1719 81.1025 56.9263 85.8969L62.9581 75.4475L56.1894 63.7288C55.3787 62.3199 54.9963 60.7053 55.0887 59.0825Z" fill="url(#paint0_radial_444_19873)"/>
</g>
<rect x="10.332" y="21.5" width="111" height="106" rx="15.5" stroke="black"/>
<rect x="10.332" y="21.5" width="111" height="106" rx="15.5" stroke="url(#paint1_linear_444_19873)"/>
<defs>
<filter id="filter0_f_444_19873" x="2.73203" y="10.9" width="126.2" height="126.2" filterUnits="userSpaceOnUse" color-interpolation-filters="sRGB">
<feFlood flood-opacity="0" result="BackgroundImageFix"/>
<feBlend mode="normal" in="SourceGraphic" in2="BackgroundImageFix" result="shape"/>
<feGaussianBlur stdDeviation="21.05" result="effect1_foregroundBlur_444_19873"/>
</filter>
<radialGradient id="paint0_radial_444_19873" cx="0" cy="0" r="1" gradientUnits="userSpaceOnUse" gradientTransform="translate(63.4812 72.5012) rotate(89.7079) scale(22.3294 24.4958)">
<stop stop-color="#C7D7FF"/>
<stop offset="1" stop-color="#788199"/>
</radialGradient>
<linearGradient id="paint1_linear_444_19873" x1="121.832" y1="74.5" x2="9.83203" y2="74.5" gradientUnits="userSpaceOnUse">
<stop stop-color="#7687B5"/>
<stop offset="1" stop-color="#333B4F"/>
</linearGradient>
<clipPath id="clip0_444_19873">
<rect x="9.83203" y="21" width="112" height="107" rx="16" fill="white"/>
</clipPath>
</defs>
</svg>
