<svg width="131" height="149" viewBox="0 0 131 149" fill="none" xmlns="http://www.w3.org/2000/svg">
<g clip-path="url(#clip0_444_19900)">
<rect x="9.83154" y="21" width="112" height="107" rx="16" fill="#788199" fill-opacity="0.21"/>
<g opacity="0.2" filter="url(#filter0_f_444_19900)">
<circle cx="65.8315" cy="74" r="21" fill="#7687B5"/>
</g>
<path d="M76.7749 57.3125C72.533 57.3125 69.217 60.5071 66.2149 64.5656C62.0899 59.3131 58.6409 57.3125 54.5137 57.3125C46.0987 57.3125 39.6499 68.2667 39.6499 79.8579C39.6499 87.111 43.1584 91.6875 49.0366 91.6875C53.267 91.6875 56.3103 89.6938 61.7209 80.236C61.7209 80.236 63.9759 76.2554 65.5251 73.5123C66.069 74.3892 66.6419 75.3349 67.2439 76.3494L69.7807 80.6165C74.7216 88.8848 77.4762 91.6875 82.4628 91.6875C88.192 91.6875 91.3774 87.0492 91.3774 79.6448C91.3774 67.5058 84.7843 57.3125 76.7749 57.3125ZM57.5937 77.6763C53.2097 84.5513 51.6926 86.0935 49.252 86.0935C46.738 86.0935 45.2439 83.8867 45.2439 79.9519C45.2439 71.5369 49.4399 62.9317 54.4426 62.9317C57.1514 62.9317 59.4155 64.4946 62.8828 69.4583C59.5897 74.5092 57.5937 77.6763 57.5937 77.6763ZM74.1509 76.8123L71.1145 71.75C70.3523 70.5051 69.5638 69.2765 68.7495 68.065C71.4834 63.846 73.7362 61.7423 76.4197 61.7423C81.9884 61.7423 86.4457 69.9465 86.4457 80.0206C86.4457 83.8615 85.1876 86.0913 82.582 86.0913C80.0841 86.0913 78.8924 84.4413 74.1487 76.81" fill="black"/>
<path d="M76.7749 57.3125C72.533 57.3125 69.217 60.5071 66.2149 64.5656C62.0899 59.3131 58.6409 57.3125 54.5137 57.3125C46.0987 57.3125 39.6499 68.2667 39.6499 79.8579C39.6499 87.111 43.1584 91.6875 49.0366 91.6875C53.267 91.6875 56.3103 89.6938 61.7209 80.236C61.7209 80.236 63.9759 76.2554 65.5251 73.5123C66.069 74.3892 66.6419 75.3349 67.2439 76.3494L69.7807 80.6165C74.7216 88.8848 77.4762 91.6875 82.4628 91.6875C88.192 91.6875 91.3774 87.0492 91.3774 79.6448C91.3774 67.5058 84.7843 57.3125 76.7749 57.3125ZM57.5937 77.6763C53.2097 84.5513 51.6926 86.0935 49.252 86.0935C46.738 86.0935 45.2439 83.8867 45.2439 79.9519C45.2439 71.5369 49.4399 62.9317 54.4426 62.9317C57.1514 62.9317 59.4155 64.4946 62.8828 69.4583C59.5897 74.5092 57.5937 77.6763 57.5937 77.6763ZM74.1509 76.8123L71.1145 71.75C70.3523 70.5051 69.5638 69.2765 68.7495 68.065C71.4834 63.846 73.7362 61.7423 76.4197 61.7423C81.9884 61.7423 86.4457 69.9465 86.4457 80.0206C86.4457 83.8615 85.1876 86.0913 82.582 86.0913C80.0841 86.0913 78.8924 84.4413 74.1487 76.81" fill="url(#paint0_radial_444_19900)"/>
</g>
<rect x="10.3315" y="21.5" width="111" height="106" rx="15.5" stroke="black"/>
<rect x="10.3315" y="21.5" width="111" height="106" rx="15.5" stroke="url(#paint1_linear_444_19900)"/>
<defs>
<filter id="filter0_f_444_19900" x="2.73154" y="10.9" width="126.2" height="126.2" filterUnits="userSpaceOnUse" color-interpolation-filters="sRGB">
<feFlood flood-opacity="0" result="BackgroundImageFix"/>
<feBlend mode="normal" in="SourceGraphic" in2="BackgroundImageFix" result="shape"/>
<feGaussianBlur stdDeviation="21.05" result="effect1_foregroundBlur_444_19900"/>
</filter>
<radialGradient id="paint0_radial_444_19900" cx="0" cy="0" r="1" gradientUnits="userSpaceOnUse" gradientTransform="translate(65.5137 74.5) rotate(89.5993) scale(18.7283 28.1812)">
<stop stop-color="#C7D7FF"/>
<stop offset="1" stop-color="#788199"/>
</radialGradient>
<linearGradient id="paint1_linear_444_19900" x1="121.832" y1="74.5" x2="9.83154" y2="74.5" gradientUnits="userSpaceOnUse">
<stop stop-color="#7687B5"/>
<stop offset="1" stop-color="#333B4F"/>
</linearGradient>
<clipPath id="clip0_444_19900">
<rect x="9.83154" y="21" width="112" height="107" rx="16" fill="white"/>
</clipPath>
</defs>
</svg>
