<svg width="131" height="149" viewBox="0 0 131 149" fill="none" xmlns="http://www.w3.org/2000/svg">
<g clip-path="url(#clip0_444_19913)">
<rect x="9.83154" y="21" width="112" height="107" rx="16" fill="#788199" fill-opacity="0.21"/>
<g opacity="0.2" filter="url(#filter0_f_444_19913)">
<circle cx="65.8315" cy="74" r="21" fill="#7687B5"/>
</g>
<path d="M83.5 52.5C84.8261 52.5 86.0979 53.0268 87.0355 53.9645C87.9732 54.9021 88.5 56.1739 88.5 57.5V92.5C88.5 93.8261 87.9732 95.0979 87.0355 96.0355C86.0979 96.9732 84.8261 97.5 83.5 97.5H48.5C47.1739 97.5 45.9021 96.9732 44.9645 96.0355C44.0268 95.0979 43.5 93.8261 43.5 92.5V57.5C43.5 56.1739 44.0268 54.9021 44.9645 53.9645C45.9021 53.0268 47.1739 52.5 48.5 52.5H83.5ZM82.25 91.25V78C82.25 75.8385 81.3913 73.7655 79.8629 72.2371C78.3345 70.7087 76.2615 69.85 74.1 69.85C71.975 69.85 69.5 71.15 68.3 73.1V70.325H61.325V91.25H68.3V78.925C68.3 77 69.85 75.425 71.775 75.425C72.7033 75.425 73.5935 75.7937 74.2499 76.4501C74.9063 77.1065 75.275 77.9967 75.275 78.925V91.25H82.25ZM53.2 66.4C54.3139 66.4 55.3822 65.9575 56.1698 65.1698C56.9575 64.3822 57.4 63.3139 57.4 62.2C57.4 59.875 55.525 57.975 53.2 57.975C52.0795 57.975 51.0048 58.4201 50.2125 59.2125C49.4201 60.0048 48.975 61.0795 48.975 62.2C48.975 64.525 50.875 66.4 53.2 66.4ZM56.675 91.25V70.325H49.75V91.25H56.675Z" fill="black"/>
<path d="M83.5 52.5C84.8261 52.5 86.0979 53.0268 87.0355 53.9645C87.9732 54.9021 88.5 56.1739 88.5 57.5V92.5C88.5 93.8261 87.9732 95.0979 87.0355 96.0355C86.0979 96.9732 84.8261 97.5 83.5 97.5H48.5C47.1739 97.5 45.9021 96.9732 44.9645 96.0355C44.0268 95.0979 43.5 93.8261 43.5 92.5V57.5C43.5 56.1739 44.0268 54.9021 44.9645 53.9645C45.9021 53.0268 47.1739 52.5 48.5 52.5H83.5ZM82.25 91.25V78C82.25 75.8385 81.3913 73.7655 79.8629 72.2371C78.3345 70.7087 76.2615 69.85 74.1 69.85C71.975 69.85 69.5 71.15 68.3 73.1V70.325H61.325V91.25H68.3V78.925C68.3 77 69.85 75.425 71.775 75.425C72.7033 75.425 73.5935 75.7937 74.2499 76.4501C74.9063 77.1065 75.275 77.9967 75.275 78.925V91.25H82.25ZM53.2 66.4C54.3139 66.4 55.3822 65.9575 56.1698 65.1698C56.9575 64.3822 57.4 63.3139 57.4 62.2C57.4 59.875 55.525 57.975 53.2 57.975C52.0795 57.975 51.0048 58.4201 50.2125 59.2125C49.4201 60.0048 48.975 61.0795 48.975 62.2C48.975 64.525 50.875 66.4 53.2 66.4ZM56.675 91.25V70.325H49.75V91.25H56.675Z" fill="url(#paint0_radial_444_19913)"/>
</g>
<rect x="10.3315" y="21.5" width="111" height="106" rx="15.5" stroke="black"/>
<rect x="10.3315" y="21.5" width="111" height="106" rx="15.5" stroke="url(#paint1_linear_444_19913)"/>
<defs>
<filter id="filter0_f_444_19913" x="2.73154" y="10.9" width="126.2" height="126.2" filterUnits="userSpaceOnUse" color-interpolation-filters="sRGB">
<feFlood flood-opacity="0" result="BackgroundImageFix"/>
<feBlend mode="normal" in="SourceGraphic" in2="BackgroundImageFix" result="shape"/>
<feGaussianBlur stdDeviation="21.05" result="effect1_foregroundBlur_444_19913"/>
</filter>
<radialGradient id="paint0_radial_444_19913" cx="0" cy="0" r="1" gradientUnits="userSpaceOnUse" gradientTransform="translate(66 75) rotate(89.7337) scale(24.5167 24.5164)">
<stop stop-color="#C7D7FF"/>
<stop offset="1" stop-color="#788199"/>
</radialGradient>
<linearGradient id="paint1_linear_444_19913" x1="121.832" y1="74.5" x2="9.83154" y2="74.5" gradientUnits="userSpaceOnUse">
<stop stop-color="#7687B5"/>
<stop offset="1" stop-color="#333B4F"/>
</linearGradient>
<clipPath id="clip0_444_19913">
<rect x="9.83154" y="21" width="112" height="107" rx="16" fill="white"/>
</clipPath>
</defs>
</svg>
