<svg width="130" height="149" viewBox="0 0 130 149" fill="none" xmlns="http://www.w3.org/2000/svg">
<g clip-path="url(#clip0_444_19943)">
<rect x="9" y="21" width="112" height="107" rx="16" fill="#788199" fill-opacity="0.21"/>
<g opacity="0.2" filter="url(#filter0_f_444_19943)">
<circle cx="65" cy="74" r="21" fill="#7687B5"/>
</g>
<path d="M78.4375 54.1094H85.3394L70.2644 71.3838L88 94.8906H74.1147L63.2388 80.6313L50.7934 94.8906H43.8888L60.0128 76.4125L43 54.1094H57.2397L67.0694 67.1397L78.4375 54.1094ZM76.0187 90.7506H79.8438L55.1584 58.0328H51.0578L76.0187 90.7506Z" fill="black"/>
<path d="M78.4375 54.1094H85.3394L70.2644 71.3838L88 94.8906H74.1147L63.2388 80.6313L50.7934 94.8906H43.8888L60.0128 76.4125L43 54.1094H57.2397L67.0694 67.1397L78.4375 54.1094ZM76.0187 90.7506H79.8438L55.1584 58.0328H51.0578L76.0187 90.7506Z" fill="url(#paint0_radial_444_19943)"/>
</g>
<rect x="9.5" y="21.5" width="111" height="106" rx="15.5" stroke="black"/>
<rect x="9.5" y="21.5" width="111" height="106" rx="15.5" stroke="url(#paint1_linear_444_19943)"/>
<defs>
<filter id="filter0_f_444_19943" x="1.9" y="10.9" width="126.2" height="126.2" filterUnits="userSpaceOnUse" color-interpolation-filters="sRGB">
<feFlood flood-opacity="0" result="BackgroundImageFix"/>
<feBlend mode="normal" in="SourceGraphic" in2="BackgroundImageFix" result="shape"/>
<feGaussianBlur stdDeviation="21.05" result="effect1_foregroundBlur_444_19943"/>
</filter>
<radialGradient id="paint0_radial_444_19943" cx="0" cy="0" r="1" gradientUnits="userSpaceOnUse" gradientTransform="translate(65.5 74.5) rotate(89.7062) scale(22.2183 24.5163)">
<stop stop-color="#C7D7FF"/>
<stop offset="1" stop-color="#788199"/>
</radialGradient>
<linearGradient id="paint1_linear_444_19943" x1="121" y1="74.5" x2="9" y2="74.5" gradientUnits="userSpaceOnUse">
<stop stop-color="#7687B5"/>
<stop offset="1" stop-color="#333B4F"/>
</linearGradient>
<clipPath id="clip0_444_19943">
<rect x="9" y="21" width="112" height="107" rx="16" fill="white"/>
</clipPath>
</defs>
</svg>
